<?xml version="1.0" standalone="no"?>
<!DOCTYPE svg PUBLIC "-//W3C//DTD SVG 20010904//EN"
 "http://www.w3.org/TR/2001/REC-SVG-20010904/DTD/svg10.dtd">
<svg version="1.0" xmlns="http://www.w3.org/2000/svg"
 width="494.000000pt" height="494.000000pt" viewBox="0 0 494.000000 494.000000"
 preserveAspectRatio="xMidYMid meet">
<metadata>
Created by potrace 1.11, written by Peter Selinger 2001-2013
</metadata>
<g transform="translate(0.000000,494.000000) scale(0.100000,-0.100000)"
fill="#000000" stroke="none">
<path d="M2690 4919 c-103 -19 -173 -28 -335 -44 -195 -19 -215 -23 -379 -88
-200 -78 -305 -142 -418 -253 -166 -164 -229 -331 -224 -594 2 -111 3 -117 39
-187 20 -40 37 -79 37 -86 0 -11 94 -138 149 -202 33 -39 98 -81 139 -90 29
-6 33 -10 28 -33 -14 -76 -18 -154 -18 -363 1 -228 0 -230 -21 -238 -169 -64
-558 -283 -677 -380 -112 -91 -273 -269 -376 -416 -27 -38 -64 -90 -82 -115
-45 -61 -163 -181 -207 -211 -19 -13 -35 -29 -35 -35 0 -6 26 -21 58 -34 31
-13 80 -33 107 -46 28 -12 79 -34 115 -49 76 -32 133 -57 214 -95 57 -28 86
-30 86 -6 0 6 20 51 44 99 56 110 118 191 166 217 21 11 21 11 16 -67 -3 -43
-8 -136 -11 -208 -3 -71 -10 -156 -16 -188 -9 -54 -64 -207 -89 -250 -20 -34
-80 -189 -80 -207 0 -17 31 -26 150 -45 19 -3 46 -8 60 -10 36 -8 59 -12 110
-20 25 -4 54 -9 65 -11 11 -3 38 -7 60 -10 22 -3 46 -7 53 -9 15 -5 91 89 138
173 48 83 100 231 118 334 15 83 15 279 1 363 -14 85 -33 162 -54 217 -11 32
-21 72 -21 89 l0 32 31 -46 c37 -57 114 -127 185 -169 l52 -32 -24 -49 c-37
-73 -65 -190 -68 -293 -6 -167 22 -300 111 -539 79 -214 99 -254 200 -405 94
-142 148 -210 166 -210 6 0 18 -6 26 -14 9 -7 50 -25 91 -41 41 -15 93 -34
115 -42 32 -12 65 -13 165 -7 141 8 477 9 680 1 l135 -5 90 35 c174 69 194 84
293 232 123 182 147 226 210 391 100 260 132 389 134 545 2 152 -12 232 -63
343 l-28 63 32 14 c18 7 42 23 54 34 12 12 26 21 30 21 22 0 126 131 183 230
100 176 109 211 106 410 -2 160 -3 168 -28 211 -48 82 -141 149 -205 149 -23
0 -24 2 -19 43 13 92 7 515 -9 612 -5 29 -2 31 43 48 27 9 61 26 75 37 37 29
184 213 192 242 4 13 23 54 41 93 34 69 34 71 34 212 0 277 -55 411 -241 589
-106 100 -198 154 -404 234 -117 46 -193 67 -273 75 -31 3 -70 8 -87 10 -16 2
-66 7 -110 10 -44 4 -132 16 -195 27 -159 29 -492 32 -630 7z"/>
</g>
</svg>
